<?xml version="1.0" encoding="utf-8"?>
<!-- Generator: Adobe Illustrator 15.0.2, SVG Export Plug-In . SVG Version: 6.00 Build 0)  -->
<!DOCTYPE svg PUBLIC "-//W3C//DTD SVG 1.1//EN" "http://www.w3.org/Graphics/SVG/1.1/DTD/svg11.dtd">
<svg version="1.1" id="Layer_1" xmlns:ev="http://www.w3.org/2001/xml-events"
	 xmlns="http://www.w3.org/2000/svg" xmlns:xlink="http://www.w3.org/1999/xlink" x="0px" y="0px" width="136.822px"
	 height="459.632px" viewBox="-1.411 -1.149 136.822 459.632" enable-background="new -1.411 -1.149 136.822 459.632"
	 xml:space="preserve">
<title></title>
<desc>
	Creator: FreeHEP Graphics2D Driver Producer: org.freehep.graphicsio.svg.SVGGraphics2D Revision Source:  Date: Friday, April 14, 2017 4:15:25 PM PDT
	</desc>
<g>
	<g transform="matrix(1, 0, 0, 1, -715, -280)">
		<g>
			<path fill="#EDF4F6" d="M743.113,716.518v12.965c0,4.143,3.358,7.5,7.5,7.5h64.773c4.143,0,7.5-3.357,7.5-7.5v-12.965
				c0-4.143-3.357-7.5-7.5-7.5h-64.773C746.471,709.018,743.113,712.375,743.113,716.518z"/>
		</g>
	</g>
	<g transform="matrix(1, 0, 0, 1, 38, 447.783203125)">
		<g>
			<path d="M6.557,0H5.455v-3.727c0-0.301-0.018-0.583-0.053-0.847s-0.1-0.47-0.193-0.618C5.111-5.355,4.971-5.478,4.787-5.558
				s-0.422-0.12-0.715-0.12c-0.301,0-0.615,0.074-0.943,0.223S2.486-5.117,2.186-4.887V0H1.084v-6.545h1.102v0.727
				c0.344-0.285,0.699-0.508,1.066-0.668s0.744-0.24,1.131-0.24C5.09-6.727,5.629-6.514,6-6.088s0.557,1.039,0.557,1.84V0z
				 M13.764,0h-1.096v-0.697c-0.098,0.066-0.229,0.159-0.396,0.278s-0.327,0.214-0.483,0.284c-0.184,0.09-0.395,0.165-0.633,0.226
				s-0.518,0.091-0.838,0.091c-0.59,0-1.09-0.195-1.5-0.586S8.203-1.293,8.203-1.898c0-0.496,0.106-0.897,0.319-1.204
				S9.039-3.65,9.434-3.826c0.398-0.176,0.877-0.295,1.436-0.357s1.158-0.109,1.799-0.141v-0.17c0-0.25-0.044-0.457-0.132-0.621
				s-0.214-0.293-0.378-0.387c-0.156-0.09-0.344-0.15-0.562-0.182S11.148-5.73,10.91-5.73c-0.289,0-0.611,0.038-0.967,0.114
				S9.221-5.43,8.842-5.285H8.783v-1.119c0.215-0.059,0.525-0.123,0.932-0.193s0.807-0.105,1.201-0.105
				c0.461,0,0.862,0.038,1.204,0.114s0.638,0.206,0.888,0.39c0.246,0.18,0.434,0.412,0.562,0.697s0.193,0.639,0.193,1.061V0z
				 M12.668-1.611v-1.822c-0.336,0.02-0.731,0.049-1.187,0.088S10.666-3.25,10.4-3.176c-0.316,0.09-0.572,0.229-0.768,0.419
				S9.34-2.307,9.34-1.975c0,0.375,0.113,0.657,0.34,0.847s0.572,0.284,1.037,0.284c0.387,0,0.74-0.075,1.061-0.226
				S12.395-1.4,12.668-1.611z M19.969-5.344H19.91c-0.164-0.039-0.323-0.067-0.478-0.085s-0.337-0.026-0.548-0.026
				c-0.34,0-0.668,0.075-0.984,0.226s-0.621,0.345-0.914,0.583V0h-1.102v-6.545h1.102v0.967c0.438-0.352,0.823-0.601,1.157-0.747
				s0.675-0.22,1.022-0.22c0.191,0,0.33,0.005,0.416,0.015s0.215,0.028,0.387,0.056V-5.344z M25.09-5.344h-0.059
				c-0.164-0.039-0.323-0.067-0.478-0.085s-0.337-0.026-0.548-0.026c-0.34,0-0.668,0.075-0.984,0.226S22.4-4.885,22.107-4.646V0
				h-1.102v-6.545h1.102v0.967c0.438-0.352,0.823-0.601,1.157-0.747s0.675-0.22,1.022-0.22c0.191,0,0.33,0.005,0.416,0.015
				s0.215,0.028,0.387,0.056V-5.344z M31.213,0h-1.096v-0.697c-0.098,0.066-0.229,0.159-0.396,0.278s-0.327,0.214-0.483,0.284
				c-0.184,0.09-0.395,0.165-0.633,0.226s-0.518,0.091-0.838,0.091c-0.59,0-1.09-0.195-1.5-0.586s-0.615-0.889-0.615-1.494
				c0-0.496,0.106-0.897,0.319-1.204s0.517-0.548,0.911-0.724c0.398-0.176,0.877-0.295,1.436-0.357s1.158-0.109,1.799-0.141v-0.17
				c0-0.25-0.044-0.457-0.132-0.621s-0.214-0.293-0.378-0.387c-0.156-0.09-0.344-0.15-0.562-0.182S28.598-5.73,28.359-5.73
				c-0.289,0-0.611,0.038-0.967,0.114S26.67-5.43,26.291-5.285h-0.059v-1.119c0.215-0.059,0.525-0.123,0.932-0.193
				s0.807-0.105,1.201-0.105c0.461,0,0.862,0.038,1.204,0.114s0.638,0.206,0.888,0.39c0.246,0.18,0.434,0.412,0.562,0.697
				s0.193,0.639,0.193,1.061V0z M30.117-1.611v-1.822c-0.336,0.02-0.731,0.049-1.187,0.088s-0.815,0.096-1.081,0.17
				c-0.316,0.09-0.572,0.229-0.768,0.419s-0.293,0.45-0.293,0.782c0,0.375,0.113,0.657,0.34,0.847s0.572,0.284,1.037,0.284
				c0.387,0,0.74-0.075,1.061-0.226S29.844-1.4,30.117-1.611z M36.732-0.059c-0.207,0.055-0.433,0.1-0.677,0.135
				s-0.462,0.053-0.653,0.053c-0.668,0-1.176-0.18-1.523-0.539s-0.521-0.936-0.521-1.729v-3.48h-0.744v-0.926h0.744v-1.881h1.102
				v1.881h2.273v0.926h-2.273v2.982c0,0.344,0.008,0.612,0.023,0.806s0.07,0.374,0.164,0.542c0.086,0.156,0.204,0.271,0.354,0.343
				s0.38,0.108,0.688,0.108c0.18,0,0.367-0.026,0.562-0.079s0.336-0.097,0.422-0.132h0.059V-0.059z M39.246-7.641h-1.242v-1.143
				h1.242V-7.641z M39.176,0h-1.102v-6.545h1.102V0z M47.016-6.545L44.367,0H43.26l-2.631-6.545h1.195l2.027,5.209l2.01-5.209
				H47.016z M53.936-3.158h-4.822c0,0.402,0.061,0.753,0.182,1.052s0.287,0.544,0.498,0.735c0.203,0.188,0.444,0.328,0.724,0.422
				s0.587,0.141,0.923,0.141c0.445,0,0.894-0.089,1.345-0.267s0.772-0.353,0.964-0.524h0.059v1.201
				c-0.371,0.156-0.75,0.287-1.137,0.393s-0.793,0.158-1.219,0.158c-1.086,0-1.934-0.294-2.543-0.882s-0.914-1.423-0.914-2.505
				c0-1.07,0.292-1.92,0.876-2.549s1.353-0.943,2.306-0.943c0.883,0,1.563,0.258,2.042,0.773s0.718,1.248,0.718,2.197V-3.158z
				 M52.863-4.002c-0.004-0.578-0.149-1.025-0.437-1.342s-0.724-0.475-1.31-0.475c-0.59,0-1.06,0.174-1.409,0.521
				s-0.548,0.779-0.595,1.295H52.863z M60.281-1.887c0,0.598-0.247,1.088-0.741,1.471s-1.169,0.574-2.024,0.574
				c-0.484,0-0.929-0.058-1.333-0.173s-0.743-0.241-1.017-0.378v-1.236h0.059c0.348,0.262,0.734,0.47,1.16,0.624
				s0.834,0.231,1.225,0.231c0.484,0,0.863-0.078,1.137-0.234s0.41-0.402,0.41-0.738c0-0.258-0.074-0.453-0.223-0.586
				s-0.434-0.246-0.855-0.34c-0.156-0.035-0.36-0.076-0.612-0.123s-0.481-0.098-0.688-0.152c-0.574-0.152-0.981-0.376-1.222-0.671
				s-0.36-0.657-0.36-1.087c0-0.27,0.056-0.523,0.167-0.762s0.28-0.451,0.507-0.639c0.219-0.184,0.497-0.329,0.835-0.437
				s0.716-0.161,1.134-0.161c0.391,0,0.786,0.048,1.187,0.144s0.733,0.212,0.999,0.349v1.178h-0.059
				c-0.281-0.207-0.623-0.382-1.025-0.524s-0.797-0.214-1.184-0.214c-0.402,0-0.742,0.077-1.02,0.231S56.32-5.156,56.32-4.852
				c0,0.27,0.084,0.473,0.252,0.609c0.164,0.137,0.43,0.248,0.797,0.334c0.203,0.047,0.431,0.094,0.683,0.141s0.462,0.09,0.63,0.129
				c0.512,0.117,0.906,0.318,1.184,0.604C60.143-2.746,60.281-2.363,60.281-1.887z"/>
		</g>
	</g>
	<g transform="matrix(1, 0, 0, 1, -715, -280)">
		<g>
			<path fill="none" stroke="#000000" stroke-width="3" stroke-linecap="square" stroke-miterlimit="10" d="M743.113,716.518v12.965
				c0,4.143,3.358,7.5,7.5,7.5h64.773c4.143,0,7.5-3.357,7.5-7.5v-12.965c0-4.143-3.357-7.5-7.5-7.5h-64.773
				C746.471,709.018,743.113,712.375,743.113,716.518z"/>
		</g>
	</g>
	<g transform="matrix(1, 0, 0, 1, -715, -280)">
		<g>
			<path fill="#EDF4F6" d="M716.089,288.851V654.92c0,4.143,3.358,7.5,7.5,7.5h116.822c4.142,0,7.5-3.357,7.5-7.5V288.851
				c0-4.142-3.358-7.5-7.5-7.5H723.589C719.447,281.351,716.089,284.708,716.089,288.851z"/>
		</g>
	</g>
	<g transform="matrix(1, 0, 0, 1, -715, -280)">
		<g>
			<path fill="none" stroke="#000000" stroke-width="5" stroke-linecap="square" stroke-miterlimit="10" d="M716.089,288.851V654.92
				c0,4.143,3.358,7.5,7.5,7.5h116.822c4.142,0,7.5-3.357,7.5-7.5V288.851c0-4.142-3.358-7.5-7.5-7.5H723.589
				C719.447,281.351,716.089,284.708,716.089,288.851z"/>
		</g>
	</g>
	<g transform="matrix(1, 0, 0, 1, -715, -280)">
		<g>
			<path fill="none" stroke="#000000" stroke-width="3" stroke-linecap="square" stroke-miterlimit="10" d="M782,327v24"/>
		</g>
	</g>
	<g transform="matrix(1, 0, 0, 1, -715, -280)">
		<g>
			<path fill="none" stroke="#000000" stroke-width="3" stroke-linecap="square" stroke-miterlimit="10" d="M782,385v25"/>
		</g>
	</g>
	<g transform="matrix(1, 0, 0, 1, -715, -280)">
		<g>
			<path fill="none" stroke="#000000" stroke-width="3" stroke-linecap="square" stroke-miterlimit="10" d="M782,440v23"/>
		</g>
	</g>
	<g transform="matrix(1, 0, 0, 1, -715, -280)">
		<g>
			<path fill="none" stroke="#000000" stroke-width="3" stroke-linecap="square" stroke-miterlimit="10" d="M782,485v25"/>
		</g>
	</g>
	<g transform="matrix(1, 0, 0, 1, -715, -280)">
		<g>
			<path fill="none" stroke="#000000" stroke-width="3" stroke-linecap="square" stroke-miterlimit="10" d="M782,542v24"/>
		</g>
	</g>
	<g transform="matrix(1, 0, 0, 1, -715, -280)">
		<g>
			<path fill="none" stroke="#000000" stroke-width="3" stroke-linecap="square" stroke-miterlimit="10" d="M782,588v28"/>
		</g>
	</g>
	<g transform="matrix(1, 0, 0, 1, -715, -280)">
		<g>
			<path fill="#EDF4F6" d="M739.195,305.351v13.299c0,4.142,3.358,7.5,7.5,7.5h70.609c4.143,0,7.5-3.358,7.5-7.5v-13.299
				c0-4.142-3.357-7.5-7.5-7.5h-70.609C742.553,297.851,739.195,301.208,739.195,305.351z"/>
		</g>
	</g>
	<g transform="matrix(1, 0, 0, 1, 34, 36.1171875)">
		<g>
			<path d="M9.316-6.545L7.611,0h-1.02L4.91-5.045L3.24,0H2.227L0.504-6.545h1.148l1.201,5.068l1.635-5.068h0.908l1.676,5.068
				l1.137-5.068H9.316z M16.482-3.27c0,1.066-0.273,1.908-0.82,2.525s-1.279,0.926-2.197,0.926c-0.926,0-1.661-0.309-2.206-0.926
				s-0.817-1.459-0.817-2.525s0.272-1.909,0.817-2.528s1.28-0.929,2.206-0.929c0.918,0,1.65,0.31,2.197,0.929
				S16.482-4.336,16.482-3.27z M15.346-3.27c0-0.848-0.166-1.478-0.498-1.89s-0.793-0.618-1.383-0.618
				c-0.598,0-1.062,0.206-1.392,0.618s-0.495,1.042-0.495,1.89c0,0.82,0.166,1.442,0.498,1.866s0.795,0.636,1.389,0.636
				c0.586,0,1.046-0.21,1.38-0.63S15.346-2.441,15.346-3.27z M22.271-5.344h-0.059c-0.164-0.039-0.323-0.067-0.478-0.085
				s-0.337-0.026-0.548-0.026c-0.34,0-0.668,0.075-0.984,0.226s-0.621,0.345-0.914,0.583V0h-1.102v-6.545h1.102v0.967
				c0.438-0.352,0.823-0.601,1.157-0.747s0.675-0.22,1.022-0.22c0.191,0,0.33,0.005,0.416,0.015s0.215,0.028,0.387,0.056V-5.344z
				 M24.422,0H23.32v-9.117h1.102V0z M31.91,0h-1.102v-0.686c-0.316,0.273-0.646,0.486-0.99,0.639s-0.717,0.229-1.119,0.229
				c-0.781,0-1.401-0.301-1.86-0.902S26.15-2.156,26.15-3.223c0-0.555,0.079-1.049,0.237-1.482s0.372-0.803,0.642-1.107
				c0.266-0.297,0.575-0.523,0.929-0.68s0.72-0.234,1.099-0.234c0.344,0,0.648,0.036,0.914,0.108s0.545,0.185,0.838,0.337v-2.836
				h1.102V0z M30.809-1.611v-3.756c-0.297-0.133-0.562-0.225-0.797-0.275s-0.49-0.076-0.768-0.076c-0.617,0-1.098,0.215-1.441,0.645
				s-0.516,1.039-0.516,1.828c0,0.777,0.133,1.368,0.398,1.772s0.691,0.606,1.277,0.606c0.312,0,0.629-0.069,0.949-0.208
				S30.531-1.393,30.809-1.611z M39.738-6.545L37.09,0h-1.107l-2.631-6.545h1.195l2.027,5.209l2.01-5.209H39.738z M42.363-7.641
				h-1.242v-1.143h1.242V-7.641z M42.293,0h-1.102v-6.545h1.102V0z M49.951-3.158h-4.822c0,0.402,0.061,0.753,0.182,1.052
				s0.287,0.544,0.498,0.735c0.203,0.188,0.444,0.328,0.724,0.422s0.587,0.141,0.923,0.141c0.445,0,0.894-0.089,1.345-0.267
				s0.772-0.353,0.964-0.524h0.059v1.201c-0.371,0.156-0.75,0.287-1.137,0.393s-0.793,0.158-1.219,0.158
				c-1.086,0-1.934-0.294-2.543-0.882S44.01-2.152,44.01-3.234c0-1.07,0.292-1.92,0.876-2.549s1.353-0.943,2.306-0.943
				c0.883,0,1.563,0.258,2.042,0.773s0.718,1.248,0.718,2.197V-3.158z M48.879-4.002c-0.004-0.578-0.149-1.025-0.437-1.342
				s-0.724-0.475-1.31-0.475c-0.59,0-1.06,0.174-1.409,0.521s-0.548,0.779-0.595,1.295H48.879z M59.854-6.545L58.148,0h-1.02
				l-1.682-5.045L53.777,0h-1.014l-1.723-6.545h1.148l1.201,5.068l1.635-5.068h0.908l1.676,5.068l1.137-5.068H59.854z M66.117-1.887
				c0,0.598-0.247,1.088-0.741,1.471s-1.169,0.574-2.024,0.574c-0.484,0-0.929-0.058-1.333-0.173s-0.743-0.241-1.017-0.378v-1.236
				h0.059c0.348,0.262,0.734,0.47,1.16,0.624s0.834,0.231,1.225,0.231c0.484,0,0.863-0.078,1.137-0.234s0.41-0.402,0.41-0.738
				c0-0.258-0.074-0.453-0.223-0.586s-0.434-0.246-0.855-0.34c-0.156-0.035-0.36-0.076-0.612-0.123s-0.481-0.098-0.688-0.152
				c-0.574-0.152-0.981-0.376-1.222-0.671s-0.36-0.657-0.36-1.087c0-0.27,0.056-0.523,0.167-0.762s0.28-0.451,0.507-0.639
				c0.219-0.184,0.497-0.329,0.835-0.437s0.716-0.161,1.134-0.161c0.391,0,0.786,0.048,1.187,0.144s0.733,0.212,0.999,0.349v1.178
				h-0.059c-0.281-0.207-0.623-0.382-1.025-0.524s-0.797-0.214-1.184-0.214c-0.402,0-0.742,0.077-1.02,0.231
				s-0.416,0.384-0.416,0.688c0,0.27,0.084,0.473,0.252,0.609c0.164,0.137,0.43,0.248,0.797,0.334
				c0.203,0.047,0.431,0.094,0.683,0.141s0.462,0.09,0.63,0.129c0.512,0.117,0.906,0.318,1.184,0.604
				C65.979-2.746,66.117-2.363,66.117-1.887z"/>
		</g>
	</g>
	<g transform="matrix(1, 0, 0, 1, -715, -280)">
		<g>
			<path fill="none" stroke="#000000" stroke-width="3" stroke-linecap="square" stroke-miterlimit="10" d="M739.195,305.351v13.299
				c0,4.142,3.358,7.5,7.5,7.5h70.609c4.143,0,7.5-3.358,7.5-7.5v-13.299c0-4.142-3.357-7.5-7.5-7.5h-70.609
				C742.553,297.851,739.195,301.208,739.195,305.351z"/>
		</g>
	</g>
	<g transform="matrix(1, 0, 0, 1, 40.2587890625, 85.1171875)">
		<g>
			<path d="M6.393,0H5.291v-0.686c-0.316,0.273-0.646,0.486-0.99,0.639S3.584,0.182,3.182,0.182c-0.781,0-1.401-0.301-1.86-0.902
				S0.633-2.156,0.633-3.223c0-0.555,0.079-1.049,0.237-1.482s0.372-0.803,0.642-1.107c0.266-0.297,0.575-0.523,0.929-0.68
				s0.72-0.234,1.099-0.234c0.344,0,0.648,0.036,0.914,0.108s0.545,0.185,0.838,0.337v-2.836h1.102V0z M5.291-1.611v-3.756
				C4.994-5.5,4.729-5.592,4.494-5.643s-0.49-0.076-0.768-0.076c-0.617,0-1.098,0.215-1.441,0.645S1.77-4.035,1.77-3.246
				c0,0.777,0.133,1.368,0.398,1.772s0.691,0.606,1.277,0.606c0.312,0,0.629-0.069,0.949-0.208S5.014-1.393,5.291-1.611z
				 M12.645-5.344h-0.059c-0.164-0.039-0.323-0.067-0.478-0.085s-0.337-0.026-0.548-0.026c-0.34,0-0.668,0.075-0.984,0.226
				S9.955-4.885,9.662-4.646V0H8.561v-6.545h1.102v0.967c0.438-0.352,0.823-0.601,1.157-0.747s0.675-0.22,1.022-0.22
				c0.191,0,0.33,0.005,0.416,0.015s0.215,0.028,0.387,0.056V-5.344z M14.865-7.641h-1.242v-1.143h1.242V-7.641z M14.795,0h-1.102
				v-6.545h1.102V0z M22.635-6.545L19.986,0h-1.107l-2.631-6.545h1.195l2.027,5.209l2.01-5.209H22.635z M29.555-3.158h-4.822
				c0,0.402,0.061,0.753,0.182,1.052s0.287,0.544,0.498,0.735c0.203,0.188,0.444,0.328,0.724,0.422s0.587,0.141,0.923,0.141
				c0.445,0,0.894-0.089,1.345-0.267s0.772-0.353,0.964-0.524h0.059v1.201c-0.371,0.156-0.75,0.287-1.137,0.393
				s-0.793,0.158-1.219,0.158c-1.086,0-1.934-0.294-2.543-0.882s-0.914-1.423-0.914-2.505c0-1.07,0.292-1.92,0.876-2.549
				s1.353-0.943,2.306-0.943c0.883,0,1.563,0.258,2.042,0.773s0.718,1.248,0.718,2.197V-3.158z M28.482-4.002
				c-0.004-0.578-0.149-1.025-0.437-1.342s-0.724-0.475-1.31-0.475c-0.59,0-1.06,0.174-1.409,0.521s-0.548,0.779-0.595,1.295H28.482
				z M38.842-0.059c-0.207,0.055-0.433,0.1-0.677,0.135s-0.462,0.053-0.653,0.053c-0.668,0-1.176-0.18-1.523-0.539
				s-0.521-0.936-0.521-1.729v-3.48h-0.744v-0.926h0.744v-1.881h1.102v1.881h2.273v0.926h-2.273v2.982
				c0,0.344,0.008,0.612,0.023,0.806s0.07,0.374,0.164,0.542c0.086,0.156,0.204,0.271,0.354,0.343s0.38,0.108,0.688,0.108
				c0.18,0,0.367-0.026,0.562-0.079s0.336-0.097,0.422-0.132h0.059V-0.059z M45.645,0h-1.102v-3.727
				c0-0.301-0.018-0.583-0.053-0.847s-0.1-0.47-0.193-0.618c-0.098-0.164-0.238-0.286-0.422-0.366s-0.422-0.12-0.715-0.12
				c-0.301,0-0.615,0.074-0.943,0.223s-0.643,0.338-0.943,0.568V0h-1.102v-9.117h1.102v3.299c0.344-0.285,0.699-0.508,1.066-0.668
				s0.744-0.24,1.131-0.24c0.707,0,1.246,0.213,1.617,0.639s0.557,1.039,0.557,1.84V0z M53.244-3.158h-4.822
				c0,0.402,0.061,0.753,0.182,1.052s0.287,0.544,0.498,0.735c0.203,0.188,0.444,0.328,0.724,0.422s0.587,0.141,0.923,0.141
				c0.445,0,0.894-0.089,1.345-0.267s0.772-0.353,0.964-0.524h0.059v1.201c-0.371,0.156-0.75,0.287-1.137,0.393
				s-0.793,0.158-1.219,0.158c-1.086,0-1.934-0.294-2.543-0.882s-0.914-1.423-0.914-2.505c0-1.07,0.292-1.92,0.876-2.549
				s1.353-0.943,2.306-0.943c0.883,0,1.563,0.258,2.042,0.773s0.718,1.248,0.718,2.197V-3.158z M52.172-4.002
				c-0.004-0.578-0.149-1.025-0.437-1.342s-0.724-0.475-1.31-0.475c-0.59,0-1.06,0.174-1.409,0.521s-0.548,0.779-0.595,1.295H52.172
				z"/>
		</g>
	</g>
	<g transform="matrix(1, 0, 0, 1, 35, 99.701171875)">
		<g>
			<path d="M5.924-0.41C5.557-0.234,5.208-0.098,4.878,0S4.197,0.146,3.826,0.146c-0.473,0-0.906-0.069-1.301-0.208
				S1.793-0.41,1.512-0.691C1.227-0.973,1.006-1.328,0.85-1.758S0.615-2.689,0.615-3.264c0-1.07,0.294-1.91,0.882-2.52
				s1.364-0.914,2.329-0.914c0.375,0,0.743,0.053,1.104,0.158s0.692,0.234,0.993,0.387v1.225H5.865
				c-0.336-0.262-0.683-0.463-1.04-0.604S4.119-5.742,3.779-5.742c-0.625,0-1.118,0.21-1.479,0.63S1.758-4.076,1.758-3.264
				c0,0.789,0.177,1.396,0.53,1.819s0.851,0.636,1.491,0.636c0.223,0,0.449-0.029,0.68-0.088S4.896-1.031,5.08-1.125
				c0.16-0.082,0.311-0.169,0.451-0.261s0.252-0.171,0.334-0.237h0.059V-0.41z M11.42-5.344h-0.059
				c-0.164-0.039-0.323-0.067-0.478-0.085s-0.337-0.026-0.548-0.026c-0.34,0-0.668,0.075-0.984,0.226S8.73-4.885,8.438-4.646V0
				H7.336v-6.545h1.102v0.967C8.875-5.93,9.261-6.179,9.595-6.325s0.675-0.22,1.022-0.22c0.191,0,0.33,0.005,0.416,0.015
				s0.215,0.028,0.387,0.056V-5.344z M17.936-3.158h-4.822c0,0.402,0.061,0.753,0.182,1.052s0.287,0.544,0.498,0.735
				c0.203,0.188,0.444,0.328,0.724,0.422s0.587,0.141,0.923,0.141c0.445,0,0.894-0.089,1.345-0.267s0.772-0.353,0.964-0.524h0.059
				v1.201c-0.371,0.156-0.75,0.287-1.137,0.393s-0.793,0.158-1.219,0.158c-1.086,0-1.934-0.294-2.543-0.882
				s-0.914-1.423-0.914-2.505c0-1.07,0.292-1.92,0.876-2.549s1.353-0.943,2.306-0.943c0.883,0,1.563,0.258,2.042,0.773
				s0.718,1.248,0.718,2.197V-3.158z M16.863-4.002c-0.004-0.578-0.149-1.025-0.437-1.342s-0.724-0.475-1.31-0.475
				c-0.59,0-1.06,0.174-1.409,0.521s-0.548,0.779-0.595,1.295H16.863z M24.691,0h-1.096v-0.697
				c-0.098,0.066-0.229,0.159-0.396,0.278s-0.327,0.214-0.483,0.284c-0.184,0.09-0.395,0.165-0.633,0.226s-0.518,0.091-0.838,0.091
				c-0.59,0-1.09-0.195-1.5-0.586s-0.615-0.889-0.615-1.494c0-0.496,0.106-0.897,0.319-1.204s0.517-0.548,0.911-0.724
				c0.398-0.176,0.877-0.295,1.436-0.357s1.158-0.109,1.799-0.141v-0.17c0-0.25-0.044-0.457-0.132-0.621s-0.214-0.293-0.378-0.387
				c-0.156-0.09-0.344-0.15-0.562-0.182S22.076-5.73,21.838-5.73c-0.289,0-0.611,0.038-0.967,0.114S20.148-5.43,19.77-5.285h-0.059
				v-1.119c0.215-0.059,0.525-0.123,0.932-0.193s0.807-0.105,1.201-0.105c0.461,0,0.862,0.038,1.204,0.114s0.638,0.206,0.888,0.39
				c0.246,0.18,0.434,0.412,0.562,0.697s0.193,0.639,0.193,1.061V0z M23.596-1.611v-1.822c-0.336,0.02-0.731,0.049-1.187,0.088
				s-0.815,0.096-1.081,0.17c-0.316,0.09-0.572,0.229-0.768,0.419s-0.293,0.45-0.293,0.782c0,0.375,0.113,0.657,0.34,0.847
				s0.572,0.284,1.037,0.284c0.387,0,0.74-0.075,1.061-0.226S23.322-1.4,23.596-1.611z M30.211-0.059
				c-0.207,0.055-0.433,0.1-0.677,0.135s-0.462,0.053-0.653,0.053c-0.668,0-1.176-0.18-1.523-0.539s-0.521-0.936-0.521-1.729v-3.48
				h-0.744v-0.926h0.744v-1.881h1.102v1.881h2.273v0.926h-2.273v2.982c0,0.344,0.008,0.612,0.023,0.806s0.07,0.374,0.164,0.542
				c0.086,0.156,0.204,0.271,0.354,0.343s0.38,0.108,0.688,0.108c0.18,0,0.367-0.026,0.562-0.079s0.336-0.097,0.422-0.132h0.059
				V-0.059z M32.725-7.641h-1.242v-1.143h1.242V-7.641z M32.654,0h-1.102v-6.545h1.102V0z M40.412-3.27
				c0,1.066-0.273,1.908-0.82,2.525s-1.279,0.926-2.197,0.926c-0.926,0-1.661-0.309-2.206-0.926s-0.817-1.459-0.817-2.525
				s0.272-1.909,0.817-2.528s1.28-0.929,2.206-0.929c0.918,0,1.65,0.31,2.197,0.929S40.412-4.336,40.412-3.27z M39.275-3.27
				c0-0.848-0.166-1.478-0.498-1.89s-0.793-0.618-1.383-0.618c-0.598,0-1.062,0.206-1.392,0.618s-0.495,1.042-0.495,1.89
				c0,0.82,0.166,1.442,0.498,1.866s0.795,0.636,1.389,0.636c0.586,0,1.046-0.21,1.38-0.63S39.275-2.441,39.275-3.27z M47.59,0
				h-1.102v-3.727c0-0.301-0.018-0.583-0.053-0.847s-0.1-0.47-0.193-0.618c-0.098-0.164-0.238-0.286-0.422-0.366
				s-0.422-0.12-0.715-0.12c-0.301,0-0.615,0.074-0.943,0.223s-0.643,0.338-0.943,0.568V0h-1.102v-6.545h1.102v0.727
				c0.344-0.285,0.699-0.508,1.066-0.668s0.744-0.24,1.131-0.24c0.707,0,1.246,0.213,1.617,0.639s0.557,1.039,0.557,1.84V0z
				 M59.508-3.27c0,1.066-0.273,1.908-0.82,2.525s-1.279,0.926-2.197,0.926c-0.926,0-1.661-0.309-2.206-0.926
				s-0.817-1.459-0.817-2.525s0.272-1.909,0.817-2.528s1.28-0.929,2.206-0.929c0.918,0,1.65,0.31,2.197,0.929
				S59.508-4.336,59.508-3.27z M58.371-3.27c0-0.848-0.166-1.478-0.498-1.89S57.08-5.777,56.49-5.777
				c-0.598,0-1.062,0.206-1.392,0.618s-0.495,1.042-0.495,1.89c0,0.82,0.166,1.442,0.498,1.866s0.795,0.636,1.389,0.636
				c0.586,0,1.046-0.21,1.38-0.63S58.371-2.441,58.371-3.27z M64.734-8.051h-0.059c-0.121-0.035-0.279-0.071-0.475-0.108
				s-0.367-0.056-0.516-0.056c-0.473,0-0.815,0.104-1.028,0.313s-0.319,0.587-0.319,1.134v0.223h1.986v0.926h-1.951V0h-1.102v-5.619
				h-0.744v-0.926h0.744v-0.217c0-0.777,0.193-1.374,0.58-1.79s0.945-0.624,1.676-0.624c0.246,0,0.468,0.012,0.665,0.035
				s0.378,0.051,0.542,0.082V-8.051z"/>
		</g>
	</g>
	<g transform="matrix(1, 0, 0, 1, -715, -280)">
		<g>
			<path fill="#EDF4F6" d="M750.938,418.351v13.299c0,4.142,3.358,7.5,7.5,7.5h47.125c4.143,0,7.5-3.358,7.5-7.5v-13.299
				c0-4.142-3.357-7.5-7.5-7.5h-47.125C754.295,410.851,750.938,414.208,750.938,418.351z"/>
		</g>
	</g>
	<g transform="matrix(1, 0, 0, 1, 45, 149.1171875)">
		<g>
			<path d="M10.635,0H9.533v-3.727c0-0.281-0.013-0.553-0.038-0.814S9.416-5.012,9.334-5.168c-0.09-0.168-0.219-0.295-0.387-0.381
				s-0.41-0.129-0.727-0.129c-0.309,0-0.617,0.077-0.926,0.231S6.678-5.096,6.369-4.857c0.012,0.09,0.021,0.194,0.029,0.313
				S6.41-4.307,6.41-4.189V0H5.309v-3.727c0-0.289-0.013-0.563-0.038-0.823S5.191-5.018,5.109-5.174
				C5.02-5.342,4.891-5.468,4.723-5.552s-0.41-0.126-0.727-0.126c-0.301,0-0.603,0.074-0.905,0.223S2.486-5.117,2.186-4.887V0H1.084
				v-6.545h1.102v0.727c0.344-0.285,0.687-0.508,1.028-0.668s0.706-0.24,1.093-0.24c0.445,0,0.823,0.094,1.134,0.281
				s0.542,0.447,0.694,0.779C6.58-6.041,6.986-6.312,7.354-6.478s0.76-0.249,1.178-0.249c0.719,0,1.249,0.218,1.591,0.653
				s0.513,1.044,0.513,1.825V0z M18.334-3.27c0,1.066-0.273,1.908-0.82,2.525s-1.279,0.926-2.197,0.926
				c-0.926,0-1.661-0.309-2.206-0.926s-0.817-1.459-0.817-2.525s0.272-1.909,0.817-2.528s1.28-0.929,2.206-0.929
				c0.918,0,1.65,0.31,2.197,0.929S18.334-4.336,18.334-3.27z M17.197-3.27c0-0.848-0.166-1.478-0.498-1.89
				s-0.793-0.618-1.383-0.618c-0.598,0-1.062,0.206-1.392,0.618S13.43-4.117,13.43-3.27c0,0.82,0.166,1.442,0.498,1.866
				s0.795,0.636,1.389,0.636c0.586,0,1.046-0.21,1.38-0.63S17.197-2.441,17.197-3.27z M25.348,0h-1.102v-0.686
				c-0.316,0.273-0.646,0.486-0.99,0.639s-0.717,0.229-1.119,0.229c-0.781,0-1.401-0.301-1.86-0.902s-0.688-1.436-0.688-2.502
				c0-0.555,0.079-1.049,0.237-1.482s0.372-0.803,0.642-1.107c0.266-0.297,0.575-0.523,0.929-0.68s0.72-0.234,1.099-0.234
				c0.344,0,0.648,0.036,0.914,0.108s0.545,0.185,0.838,0.337v-2.836h1.102V0z M24.246-1.611v-3.756
				c-0.297-0.133-0.562-0.225-0.797-0.275s-0.49-0.076-0.768-0.076c-0.617,0-1.098,0.215-1.441,0.645s-0.516,1.039-0.516,1.828
				c0,0.777,0.133,1.368,0.398,1.772s0.691,0.606,1.277,0.606c0.312,0,0.629-0.069,0.949-0.208S23.969-1.393,24.246-1.611z
				 M32.994-3.158h-4.822c0,0.402,0.061,0.753,0.182,1.052s0.287,0.544,0.498,0.735c0.203,0.188,0.444,0.328,0.724,0.422
				s0.587,0.141,0.923,0.141c0.445,0,0.894-0.089,1.345-0.267s0.772-0.353,0.964-0.524h0.059v1.201
				c-0.371,0.156-0.75,0.287-1.137,0.393s-0.793,0.158-1.219,0.158c-1.086,0-1.934-0.294-2.543-0.882s-0.914-1.423-0.914-2.505
				c0-1.07,0.292-1.92,0.876-2.549s1.353-0.943,2.306-0.943c0.883,0,1.563,0.258,2.042,0.773s0.718,1.248,0.718,2.197V-3.158z
				 M31.922-4.002c-0.004-0.578-0.149-1.025-0.437-1.342s-0.724-0.475-1.31-0.475c-0.59,0-1.06,0.174-1.409,0.521
				s-0.548,0.779-0.595,1.295H31.922z M35.777,0h-1.102v-9.117h1.102V0z M42.633-1.887c0,0.598-0.247,1.088-0.741,1.471
				s-1.169,0.574-2.024,0.574c-0.484,0-0.929-0.058-1.333-0.173s-0.743-0.241-1.017-0.378v-1.236h0.059
				c0.348,0.262,0.734,0.47,1.16,0.624s0.834,0.231,1.225,0.231c0.484,0,0.863-0.078,1.137-0.234s0.41-0.402,0.41-0.738
				c0-0.258-0.074-0.453-0.223-0.586s-0.434-0.246-0.855-0.34c-0.156-0.035-0.36-0.076-0.612-0.123s-0.481-0.098-0.688-0.152
				c-0.574-0.152-0.981-0.376-1.222-0.671s-0.36-0.657-0.36-1.087c0-0.27,0.056-0.523,0.167-0.762s0.28-0.451,0.507-0.639
				c0.219-0.184,0.497-0.329,0.835-0.437s0.716-0.161,1.134-0.161c0.391,0,0.786,0.048,1.187,0.144s0.733,0.212,0.999,0.349v1.178
				h-0.059c-0.281-0.207-0.623-0.382-1.025-0.524s-0.797-0.214-1.184-0.214c-0.402,0-0.742,0.077-1.02,0.231
				s-0.416,0.384-0.416,0.688c0,0.27,0.084,0.473,0.252,0.609c0.164,0.137,0.43,0.248,0.797,0.334
				c0.203,0.047,0.431,0.094,0.683,0.141s0.462,0.09,0.63,0.129c0.512,0.117,0.906,0.318,1.184,0.604
				C42.494-2.746,42.633-2.363,42.633-1.887z"/>
		</g>
	</g>
	<g transform="matrix(1, 0, 0, 1, -715, -280)">
		<g>
			<path fill="none" stroke="#000000" stroke-width="3" stroke-linecap="square" stroke-miterlimit="10" d="M750.938,418.351v13.299
				c0,4.142,3.358,7.5,7.5,7.5h47.125c4.143,0,7.5-3.358,7.5-7.5v-13.299c0-4.142-3.357-7.5-7.5-7.5h-47.125
				C754.295,410.851,750.938,414.208,750.938,418.351z"/>
		</g>
	</g>
	<g transform="matrix(1, 0, 0, 1, 23, 197.17578125)">
		<g>
			<path d="M6.17,0H5.074v-0.697C4.977-0.631,4.845-0.538,4.679-0.419S4.352-0.205,4.195-0.135C4.012-0.045,3.801,0.03,3.562,0.091
				S3.045,0.182,2.725,0.182c-0.59,0-1.09-0.195-1.5-0.586S0.609-1.293,0.609-1.898c0-0.496,0.106-0.897,0.319-1.204
				S1.445-3.65,1.84-3.826c0.398-0.176,0.877-0.295,1.436-0.357s1.158-0.109,1.799-0.141v-0.17c0-0.25-0.044-0.457-0.132-0.621
				S4.729-5.408,4.564-5.502c-0.156-0.09-0.344-0.15-0.562-0.182S3.555-5.73,3.316-5.73c-0.289,0-0.611,0.038-0.967,0.114
				S1.627-5.43,1.248-5.285H1.189v-1.119c0.215-0.059,0.525-0.123,0.932-0.193s0.807-0.105,1.201-0.105
				c0.461,0,0.862,0.038,1.204,0.114s0.638,0.206,0.888,0.39C5.66-6.02,5.848-5.787,5.977-5.502S6.17-4.863,6.17-4.441V0z
				 M5.074-1.611v-1.822c-0.336,0.02-0.731,0.049-1.187,0.088S3.072-3.25,2.807-3.176C2.49-3.086,2.234-2.946,2.039-2.757
				s-0.293,0.45-0.293,0.782c0,0.375,0.113,0.657,0.34,0.847s0.572,0.284,1.037,0.284c0.387,0,0.74-0.075,1.061-0.226
				S4.801-1.4,5.074-1.611z M12.375-5.344h-0.059c-0.164-0.039-0.323-0.067-0.478-0.085s-0.337-0.026-0.548-0.026
				c-0.34,0-0.668,0.075-0.984,0.226S9.686-4.885,9.393-4.646V0H8.291v-6.545h1.102v0.967C9.83-5.93,10.216-6.179,10.55-6.325
				s0.675-0.22,1.022-0.22c0.191,0,0.33,0.005,0.416,0.015s0.215,0.028,0.387,0.056V-5.344z M18.891-3.158h-4.822
				c0,0.402,0.061,0.753,0.182,1.052s0.287,0.544,0.498,0.735c0.203,0.188,0.444,0.328,0.724,0.422s0.587,0.141,0.923,0.141
				c0.445,0,0.894-0.089,1.345-0.267s0.772-0.353,0.964-0.524h0.059v1.201c-0.371,0.156-0.75,0.287-1.137,0.393
				s-0.793,0.158-1.219,0.158c-1.086,0-1.934-0.294-2.543-0.882s-0.914-1.423-0.914-2.505c0-1.07,0.292-1.92,0.876-2.549
				s1.353-0.943,2.306-0.943c0.883,0,1.563,0.258,2.042,0.773s0.718,1.248,0.718,2.197V-3.158z M17.818-4.002
				c-0.004-0.578-0.149-1.025-0.437-1.342s-0.724-0.475-1.31-0.475c-0.59,0-1.06,0.174-1.409,0.521s-0.548,0.779-0.595,1.295H17.818
				z M29.455-1.887c0,0.598-0.247,1.088-0.741,1.471s-1.169,0.574-2.024,0.574c-0.484,0-0.929-0.058-1.333-0.173
				s-0.743-0.241-1.017-0.378v-1.236h0.059c0.348,0.262,0.734,0.47,1.16,0.624s0.834,0.231,1.225,0.231
				c0.484,0,0.863-0.078,1.137-0.234s0.41-0.402,0.41-0.738c0-0.258-0.074-0.453-0.223-0.586s-0.434-0.246-0.855-0.34
				c-0.156-0.035-0.36-0.076-0.612-0.123s-0.481-0.098-0.688-0.152C25.377-3.1,24.97-3.323,24.729-3.618s-0.36-0.657-0.36-1.087
				c0-0.27,0.056-0.523,0.167-0.762s0.28-0.451,0.507-0.639c0.219-0.184,0.497-0.329,0.835-0.437s0.716-0.161,1.134-0.161
				c0.391,0,0.786,0.048,1.187,0.144s0.733,0.212,0.999,0.349v1.178h-0.059c-0.281-0.207-0.623-0.382-1.025-0.524
				s-0.797-0.214-1.184-0.214c-0.402,0-0.742,0.077-1.02,0.231s-0.416,0.384-0.416,0.688c0,0.27,0.084,0.473,0.252,0.609
				c0.164,0.137,0.43,0.248,0.797,0.334c0.203,0.047,0.431,0.094,0.683,0.141s0.462,0.09,0.63,0.129
				c0.512,0.117,0.906,0.318,1.184,0.604C29.316-2.746,29.455-2.363,29.455-1.887z M36.691-6.545l-3.82,8.959h-1.178l1.219-2.73
				l-2.607-6.229H31.5l2.01,4.852l2.027-4.852H36.691z M42.809-1.887c0,0.598-0.247,1.088-0.741,1.471s-1.169,0.574-2.024,0.574
				c-0.484,0-0.929-0.058-1.333-0.173s-0.743-0.241-1.017-0.378v-1.236h0.059c0.348,0.262,0.734,0.47,1.16,0.624
				s0.834,0.231,1.225,0.231c0.484,0,0.863-0.078,1.137-0.234s0.41-0.402,0.41-0.738c0-0.258-0.074-0.453-0.223-0.586
				s-0.434-0.246-0.855-0.34c-0.156-0.035-0.36-0.076-0.612-0.123s-0.481-0.098-0.688-0.152C38.73-3.1,38.323-3.323,38.083-3.618
				s-0.36-0.657-0.36-1.087c0-0.27,0.056-0.523,0.167-0.762s0.28-0.451,0.507-0.639c0.219-0.184,0.497-0.329,0.835-0.437
				s0.716-0.161,1.134-0.161c0.391,0,0.786,0.048,1.187,0.144s0.733,0.212,0.999,0.349v1.178h-0.059
				c-0.281-0.207-0.623-0.382-1.025-0.524s-0.797-0.214-1.184-0.214c-0.402,0-0.742,0.077-1.02,0.231s-0.416,0.384-0.416,0.688
				c0,0.27,0.084,0.473,0.252,0.609c0.164,0.137,0.43,0.248,0.797,0.334c0.203,0.047,0.431,0.094,0.683,0.141s0.462,0.09,0.63,0.129
				c0.512,0.117,0.906,0.318,1.184,0.604C42.67-2.746,42.809-2.363,42.809-1.887z M47.783-0.059c-0.207,0.055-0.433,0.1-0.677,0.135
				s-0.462,0.053-0.653,0.053c-0.668,0-1.176-0.18-1.523-0.539s-0.521-0.936-0.521-1.729v-3.48h-0.744v-0.926h0.744v-1.881h1.102
				v1.881h2.273v0.926H45.51v2.982c0,0.344,0.008,0.612,0.023,0.806s0.07,0.374,0.164,0.542c0.086,0.156,0.204,0.271,0.354,0.343
				s0.38,0.108,0.688,0.108c0.18,0,0.367-0.026,0.562-0.079s0.336-0.097,0.422-0.132h0.059V-0.059z M54.592-3.158H49.77
				c0,0.402,0.061,0.753,0.182,1.052s0.287,0.544,0.498,0.735c0.203,0.188,0.444,0.328,0.724,0.422s0.587,0.141,0.923,0.141
				c0.445,0,0.894-0.089,1.345-0.267s0.772-0.353,0.964-0.524h0.059v1.201c-0.371,0.156-0.75,0.287-1.137,0.393
				s-0.793,0.158-1.219,0.158c-1.086,0-1.934-0.294-2.543-0.882S48.65-2.152,48.65-3.234c0-1.07,0.292-1.92,0.876-2.549
				s1.353-0.943,2.306-0.943c0.883,0,1.563,0.258,2.042,0.773s0.718,1.248,0.718,2.197V-3.158z M53.52-4.002
				c-0.004-0.578-0.149-1.025-0.437-1.342s-0.724-0.475-1.31-0.475c-0.59,0-1.06,0.174-1.409,0.521s-0.548,0.779-0.595,1.295H53.52z
				 M65.812,0h-1.102v-3.727c0-0.281-0.013-0.553-0.038-0.814s-0.079-0.471-0.161-0.627c-0.09-0.168-0.219-0.295-0.387-0.381
				s-0.41-0.129-0.727-0.129c-0.309,0-0.617,0.077-0.926,0.231s-0.617,0.351-0.926,0.589c0.012,0.09,0.021,0.194,0.029,0.313
				s0.012,0.237,0.012,0.354V0h-1.102v-3.727c0-0.289-0.013-0.563-0.038-0.823s-0.079-0.468-0.161-0.624
				c-0.09-0.168-0.219-0.294-0.387-0.378s-0.41-0.126-0.727-0.126c-0.301,0-0.603,0.074-0.905,0.223s-0.604,0.338-0.905,0.568V0
				h-1.102v-6.545h1.102v0.727c0.344-0.285,0.687-0.508,1.028-0.668s0.706-0.24,1.093-0.24c0.445,0,0.823,0.094,1.134,0.281
				s0.542,0.447,0.694,0.779c0.445-0.375,0.852-0.646,1.219-0.812s0.76-0.249,1.178-0.249c0.719,0,1.249,0.218,1.591,0.653
				s0.513,1.044,0.513,1.825V0z M72.609-1.887c0,0.598-0.247,1.088-0.741,1.471s-1.169,0.574-2.024,0.574
				c-0.484,0-0.929-0.058-1.333-0.173s-0.743-0.241-1.017-0.378v-1.236h0.059c0.348,0.262,0.734,0.47,1.16,0.624
				s0.834,0.231,1.225,0.231c0.484,0,0.863-0.078,1.137-0.234s0.41-0.402,0.41-0.738c0-0.258-0.074-0.453-0.223-0.586
				s-0.434-0.246-0.855-0.34c-0.156-0.035-0.36-0.076-0.612-0.123s-0.481-0.098-0.688-0.152c-0.574-0.152-0.981-0.376-1.222-0.671
				s-0.36-0.657-0.36-1.087c0-0.27,0.056-0.523,0.167-0.762s0.28-0.451,0.507-0.639c0.219-0.184,0.497-0.329,0.835-0.437
				s0.716-0.161,1.134-0.161c0.391,0,0.786,0.048,1.187,0.144s0.733,0.212,0.999,0.349v1.178h-0.059
				c-0.281-0.207-0.623-0.382-1.025-0.524s-0.797-0.214-1.184-0.214c-0.402,0-0.742,0.077-1.02,0.231s-0.416,0.384-0.416,0.688
				c0,0.27,0.084,0.473,0.252,0.609c0.164,0.137,0.43,0.248,0.797,0.334c0.203,0.047,0.431,0.094,0.683,0.141s0.462,0.09,0.63,0.129
				c0.512,0.117,0.906,0.318,1.184,0.604C72.471-2.746,72.609-2.363,72.609-1.887z M83.982-3.27c0,1.066-0.273,1.908-0.82,2.525
				s-1.279,0.926-2.197,0.926c-0.926,0-1.661-0.309-2.206-0.926s-0.817-1.459-0.817-2.525s0.272-1.909,0.817-2.528
				s1.28-0.929,2.206-0.929c0.918,0,1.65,0.31,2.197,0.929S83.982-4.336,83.982-3.27z M82.846-3.27c0-0.848-0.166-1.478-0.498-1.89
				s-0.793-0.618-1.383-0.618c-0.598,0-1.062,0.206-1.392,0.618s-0.495,1.042-0.495,1.89c0,0.82,0.166,1.442,0.498,1.866
				s0.795,0.636,1.389,0.636c0.586,0,1.046-0.21,1.38-0.63S82.846-2.441,82.846-3.27z M89.209-8.051H89.15
				c-0.121-0.035-0.279-0.071-0.475-0.108s-0.367-0.056-0.516-0.056c-0.473,0-0.815,0.104-1.028,0.313s-0.319,0.587-0.319,1.134
				v0.223h1.986v0.926h-1.951V0h-1.102v-5.619h-0.744v-0.926h0.744v-0.217c0-0.777,0.193-1.374,0.58-1.79s0.945-0.624,1.676-0.624
				c0.246,0,0.468,0.012,0.665,0.035s0.378,0.051,0.542,0.082V-8.051z"/>
		</g>
	</g>
	<g transform="matrix(1, 0, 0, 1, -715, -280)">
		<g>
			<path fill="#EDF4F6" d="M735.832,518.401v15.197c0,4.142,3.358,7.5,7.5,7.5h77.336c4.143,0,7.5-3.358,7.5-7.5v-15.197
				c0-4.142-3.357-7.5-7.5-7.5h-77.336C739.19,510.901,735.832,514.26,735.832,518.401z"/>
		</g>
	</g>
	<g transform="matrix(1, 0, 0, 1, 30, 248.783203125)">
		<g>
			<path d="M6.844-3.352c0,0.531-0.076,1.017-0.229,1.456S6.248-1.084,5.971-0.779C5.713-0.49,5.409-0.267,5.06-0.108
				s-0.72,0.237-1.11,0.237c-0.34,0-0.647-0.037-0.923-0.111S2.471-0.172,2.186-0.328v2.742H1.084v-8.959h1.102v0.686
				c0.293-0.246,0.622-0.452,0.987-0.618s0.755-0.249,1.169-0.249c0.789,0,1.403,0.298,1.843,0.894S6.844-4.41,6.844-3.352z
				 M5.707-3.322c0-0.789-0.135-1.379-0.404-1.77S4.619-5.678,4.061-5.678c-0.316,0-0.635,0.068-0.955,0.205
				s-0.627,0.316-0.92,0.539v3.709c0.312,0.141,0.581,0.236,0.806,0.287s0.479,0.076,0.765,0.076c0.613,0,1.092-0.207,1.436-0.621
				S5.707-2.51,5.707-3.322z M12.645-5.344h-0.059c-0.164-0.039-0.323-0.067-0.478-0.085s-0.337-0.026-0.548-0.026
				c-0.34,0-0.668,0.075-0.984,0.226S9.955-4.885,9.662-4.646V0H8.561v-6.545h1.102v0.967c0.438-0.352,0.823-0.601,1.157-0.747
				s0.675-0.22,1.022-0.22c0.191,0,0.33,0.005,0.416,0.015s0.215,0.028,0.387,0.056V-5.344z M19.26-3.27
				c0,1.066-0.273,1.908-0.82,2.525s-1.279,0.926-2.197,0.926c-0.926,0-1.661-0.309-2.206-0.926s-0.817-1.459-0.817-2.525
				s0.272-1.909,0.817-2.528s1.28-0.929,2.206-0.929c0.918,0,1.65,0.31,2.197,0.929S19.26-4.336,19.26-3.27z M18.123-3.27
				c0-0.848-0.166-1.478-0.498-1.89s-0.793-0.618-1.383-0.618c-0.598,0-1.062,0.206-1.392,0.618s-0.495,1.042-0.495,1.89
				c0,0.82,0.166,1.442,0.498,1.866s0.795,0.636,1.389,0.636c0.586,0,1.046-0.21,1.38-0.63S18.123-2.441,18.123-3.27z M26.725-3.352
				c0,0.531-0.076,1.017-0.229,1.456s-0.367,0.812-0.645,1.116C25.594-0.49,25.29-0.267,24.94-0.108s-0.72,0.237-1.11,0.237
				c-0.34,0-0.647-0.037-0.923-0.111s-0.556-0.189-0.841-0.346v2.742h-1.102v-8.959h1.102v0.686
				c0.293-0.246,0.622-0.452,0.987-0.618s0.755-0.249,1.169-0.249c0.789,0,1.403,0.298,1.843,0.894S26.725-4.41,26.725-3.352z
				 M25.588-3.322c0-0.789-0.135-1.379-0.404-1.77S24.5-5.678,23.941-5.678c-0.316,0-0.635,0.068-0.955,0.205
				s-0.627,0.316-0.92,0.539v3.709c0.312,0.141,0.581,0.236,0.806,0.287s0.479,0.076,0.765,0.076c0.613,0,1.092-0.207,1.436-0.621
				S25.588-2.51,25.588-3.322z M34.02-3.27c0,1.066-0.273,1.908-0.82,2.525s-1.279,0.926-2.197,0.926
				c-0.926,0-1.661-0.309-2.206-0.926s-0.817-1.459-0.817-2.525s0.272-1.909,0.817-2.528s1.28-0.929,2.206-0.929
				c0.918,0,1.65,0.31,2.197,0.929S34.02-4.336,34.02-3.27z M32.883-3.27c0-0.848-0.166-1.478-0.498-1.89s-0.793-0.618-1.383-0.618
				c-0.598,0-1.062,0.206-1.392,0.618s-0.495,1.042-0.495,1.89c0,0.82,0.166,1.442,0.498,1.866s0.795,0.636,1.389,0.636
				c0.586,0,1.046-0.21,1.38-0.63S32.883-2.441,32.883-3.27z M40.4-1.887c0,0.598-0.247,1.088-0.741,1.471s-1.169,0.574-2.024,0.574
				c-0.484,0-0.929-0.058-1.333-0.173s-0.743-0.241-1.017-0.378v-1.236h0.059c0.348,0.262,0.734,0.47,1.16,0.624
				s0.834,0.231,1.225,0.231c0.484,0,0.863-0.078,1.137-0.234s0.41-0.402,0.41-0.738c0-0.258-0.074-0.453-0.223-0.586
				s-0.434-0.246-0.855-0.34c-0.156-0.035-0.36-0.076-0.612-0.123s-0.481-0.098-0.688-0.152c-0.574-0.152-0.981-0.376-1.222-0.671
				s-0.36-0.657-0.36-1.087c0-0.27,0.056-0.523,0.167-0.762s0.28-0.451,0.507-0.639c0.219-0.184,0.497-0.329,0.835-0.437
				s0.716-0.161,1.134-0.161c0.391,0,0.786,0.048,1.187,0.144s0.733,0.212,0.999,0.349v1.178h-0.059
				c-0.281-0.207-0.623-0.382-1.025-0.524s-0.797-0.214-1.184-0.214c-0.402,0-0.742,0.077-1.02,0.231s-0.416,0.384-0.416,0.688
				c0,0.27,0.084,0.473,0.252,0.609c0.164,0.137,0.43,0.248,0.797,0.334c0.203,0.047,0.431,0.094,0.683,0.141s0.462,0.09,0.63,0.129
				c0.512,0.117,0.906,0.318,1.184,0.604C40.262-2.746,40.4-2.363,40.4-1.887z M43.16-7.641h-1.242v-1.143h1.242V-7.641z M43.09,0
				h-1.102v-6.545h1.102V0z M48.668-0.059c-0.207,0.055-0.433,0.1-0.677,0.135s-0.462,0.053-0.653,0.053
				c-0.668,0-1.176-0.18-1.523-0.539s-0.521-0.936-0.521-1.729v-3.48h-0.744v-0.926h0.744v-1.881h1.102v1.881h2.273v0.926h-2.273
				v2.982c0,0.344,0.008,0.612,0.023,0.806s0.07,0.374,0.164,0.542c0.086,0.156,0.204,0.271,0.354,0.343s0.38,0.108,0.688,0.108
				c0.18,0,0.367-0.026,0.562-0.079s0.336-0.097,0.422-0.132h0.059V-0.059z M51.182-7.641h-1.242v-1.143h1.242V-7.641z M51.111,0
				H50.01v-6.545h1.102V0z M58.869-3.27c0,1.066-0.273,1.908-0.82,2.525s-1.279,0.926-2.197,0.926c-0.926,0-1.661-0.309-2.206-0.926
				s-0.817-1.459-0.817-2.525s0.272-1.909,0.817-2.528s1.28-0.929,2.206-0.929c0.918,0,1.65,0.31,2.197,0.929
				S58.869-4.336,58.869-3.27z M57.732-3.27c0-0.848-0.166-1.478-0.498-1.89s-0.793-0.618-1.383-0.618
				c-0.598,0-1.062,0.206-1.392,0.618s-0.495,1.042-0.495,1.89c0,0.82,0.166,1.442,0.498,1.866s0.795,0.636,1.389,0.636
				c0.586,0,1.046-0.21,1.38-0.63S57.732-2.441,57.732-3.27z M66.047,0h-1.102v-3.727c0-0.301-0.018-0.583-0.053-0.847
				s-0.1-0.47-0.193-0.618c-0.098-0.164-0.238-0.286-0.422-0.366s-0.422-0.12-0.715-0.12c-0.301,0-0.615,0.074-0.943,0.223
				s-0.643,0.338-0.943,0.568V0h-1.102v-6.545h1.102v0.727c0.344-0.285,0.699-0.508,1.066-0.668s0.744-0.24,1.131-0.24
				c0.707,0,1.246,0.213,1.617,0.639s0.557,1.039,0.557,1.84V0z M72.844-1.887c0,0.598-0.247,1.088-0.741,1.471
				s-1.169,0.574-2.024,0.574c-0.484,0-0.929-0.058-1.333-0.173s-0.743-0.241-1.017-0.378v-1.236h0.059
				c0.348,0.262,0.734,0.47,1.16,0.624s0.834,0.231,1.225,0.231c0.484,0,0.863-0.078,1.137-0.234s0.41-0.402,0.41-0.738
				c0-0.258-0.074-0.453-0.223-0.586s-0.434-0.246-0.855-0.34c-0.156-0.035-0.36-0.076-0.612-0.123s-0.481-0.098-0.688-0.152
				c-0.574-0.152-0.981-0.376-1.222-0.671s-0.36-0.657-0.36-1.087c0-0.27,0.056-0.523,0.167-0.762s0.28-0.451,0.507-0.639
				c0.219-0.184,0.497-0.329,0.835-0.437s0.716-0.161,1.134-0.161c0.391,0,0.786,0.048,1.187,0.144s0.733,0.212,0.999,0.349v1.178
				h-0.059c-0.281-0.207-0.623-0.382-1.025-0.524s-0.797-0.214-1.184-0.214c-0.402,0-0.742,0.077-1.02,0.231
				s-0.416,0.384-0.416,0.688c0,0.27,0.084,0.473,0.252,0.609c0.164,0.137,0.43,0.248,0.797,0.334
				c0.203,0.047,0.431,0.094,0.683,0.141s0.462,0.09,0.63,0.129c0.512,0.117,0.906,0.318,1.184,0.604
				C72.705-2.746,72.844-2.363,72.844-1.887z"/>
		</g>
	</g>
	<g transform="matrix(1, 0, 0, 1, -715, -280)">
		<g>
			<path fill="none" stroke="#000000" stroke-width="3" stroke-linecap="square" stroke-miterlimit="10" d="M735.832,518.401v15.197
				c0,4.142,3.358,7.5,7.5,7.5h77.336c4.143,0,7.5-3.358,7.5-7.5v-15.197c0-4.142-3.357-7.5-7.5-7.5h-77.336
				C739.19,510.901,735.832,514.26,735.832,518.401z"/>
		</g>
	</g>
	<g transform="matrix(1, 0, 0, 1, 29, 300.1171875)">
		<g>
			<path d="M2.197,0H1.096v-9.117h1.102V0z M5.561-7.641H4.318v-1.143h1.242V-7.641z M5.49,0H4.389v-6.545H5.49V0z M13.143,0h-1.102
				v-3.727c0-0.301-0.018-0.583-0.053-0.847s-0.1-0.47-0.193-0.618c-0.098-0.164-0.238-0.286-0.422-0.366s-0.422-0.12-0.715-0.12
				c-0.301,0-0.615,0.074-0.943,0.223S9.072-5.117,8.771-4.887V0H7.67v-6.545h1.102v0.727c0.344-0.285,0.699-0.508,1.066-0.668
				s0.744-0.24,1.131-0.24c0.707,0,1.246,0.213,1.617,0.639s0.557,1.039,0.557,1.84V0z M21.205,0h-1.453l-2.625-2.865l-0.715,0.68V0
				h-1.102v-9.117h1.102v5.848l3.182-3.275h1.389l-3.041,3.023L21.205,0z M29.982-0.059c-0.207,0.055-0.433,0.1-0.677,0.135
				s-0.462,0.053-0.653,0.053c-0.668,0-1.176-0.18-1.523-0.539s-0.521-0.936-0.521-1.729v-3.48h-0.744v-0.926h0.744v-1.881h1.102
				v1.881h2.273v0.926h-2.273v2.982c0,0.344,0.008,0.612,0.023,0.806s0.07,0.374,0.164,0.542c0.086,0.156,0.204,0.271,0.354,0.343
				s0.38,0.108,0.688,0.108c0.18,0,0.367-0.026,0.562-0.079s0.336-0.097,0.422-0.132h0.059V-0.059z M36.891-3.27
				c0,1.066-0.273,1.908-0.82,2.525s-1.279,0.926-2.197,0.926c-0.926,0-1.661-0.309-2.206-0.926S30.85-2.203,30.85-3.27
				s0.272-1.909,0.817-2.528s1.28-0.929,2.206-0.929c0.918,0,1.65,0.31,2.197,0.929S36.891-4.336,36.891-3.27z M35.754-3.27
				c0-0.848-0.166-1.478-0.498-1.89s-0.793-0.618-1.383-0.618c-0.598,0-1.062,0.206-1.392,0.618s-0.495,1.042-0.495,1.89
				c0,0.82,0.166,1.442,0.498,1.866s0.795,0.636,1.389,0.636c0.586,0,1.046-0.21,1.38-0.63S35.754-2.441,35.754-3.27z M43.904-0.744
				c0,1.109-0.252,1.924-0.756,2.443s-1.279,0.779-2.326,0.779c-0.348,0-0.687-0.024-1.017-0.073S39.15,2.287,38.83,2.197V1.072
				h0.059c0.18,0.07,0.465,0.157,0.855,0.261s0.781,0.155,1.172,0.155c0.375,0,0.686-0.045,0.932-0.135s0.438-0.215,0.574-0.375
				c0.137-0.152,0.234-0.336,0.293-0.551s0.088-0.455,0.088-0.721v-0.598c-0.332,0.266-0.649,0.464-0.952,0.595
				S41.162-0.1,40.693-0.1c-0.781,0-1.401-0.282-1.86-0.847s-0.688-1.36-0.688-2.388c0-0.562,0.079-1.048,0.237-1.456
				s0.374-0.761,0.647-1.058c0.254-0.277,0.562-0.493,0.926-0.647s0.725-0.231,1.084-0.231c0.379,0,0.696,0.038,0.952,0.114
				s0.526,0.192,0.812,0.349l0.07-0.281h1.031V-0.744z M42.803-1.799v-3.568C42.51-5.5,42.237-5.595,41.985-5.651
				s-0.503-0.085-0.753-0.085c-0.605,0-1.082,0.203-1.43,0.609s-0.521,0.996-0.521,1.77c0,0.734,0.129,1.291,0.387,1.67
				s0.686,0.568,1.283,0.568c0.32,0,0.642-0.062,0.964-0.185S42.533-1.592,42.803-1.799z M51.551-3.158h-4.822
				c0,0.402,0.061,0.753,0.182,1.052s0.287,0.544,0.498,0.735c0.203,0.188,0.444,0.328,0.724,0.422s0.587,0.141,0.923,0.141
				c0.445,0,0.894-0.089,1.345-0.267s0.772-0.353,0.964-0.524h0.059v1.201c-0.371,0.156-0.75,0.287-1.137,0.393
				s-0.793,0.158-1.219,0.158c-1.086,0-1.934-0.294-2.543-0.882s-0.914-1.423-0.914-2.505c0-1.07,0.292-1.92,0.876-2.549
				s1.353-0.943,2.306-0.943c0.883,0,1.563,0.258,2.042,0.773s0.718,1.248,0.718,2.197V-3.158z M50.479-4.002
				c-0.004-0.578-0.149-1.025-0.437-1.342s-0.724-0.475-1.31-0.475c-0.59,0-1.06,0.174-1.409,0.521s-0.548,0.779-0.595,1.295H50.479
				z M56.619-0.059c-0.207,0.055-0.433,0.1-0.677,0.135s-0.462,0.053-0.653,0.053c-0.668,0-1.176-0.18-1.523-0.539
				s-0.521-0.936-0.521-1.729v-3.48H52.5v-0.926h0.744v-1.881h1.102v1.881h2.273v0.926h-2.273v2.982
				c0,0.344,0.008,0.612,0.023,0.806s0.07,0.374,0.164,0.542c0.086,0.156,0.204,0.271,0.354,0.343s0.38,0.108,0.688,0.108
				c0.18,0,0.367-0.026,0.562-0.079s0.336-0.097,0.422-0.132h0.059V-0.059z M63.422,0H62.32v-3.727c0-0.301-0.018-0.583-0.053-0.847
				s-0.1-0.47-0.193-0.618c-0.098-0.164-0.238-0.286-0.422-0.366s-0.422-0.12-0.715-0.12c-0.301,0-0.615,0.074-0.943,0.223
				s-0.643,0.338-0.943,0.568V0h-1.102v-9.117h1.102v3.299c0.344-0.285,0.699-0.508,1.066-0.668s0.744-0.24,1.131-0.24
				c0.707,0,1.246,0.213,1.617,0.639s0.557,1.039,0.557,1.84V0z M71.021-3.158h-4.822c0,0.402,0.061,0.753,0.182,1.052
				s0.287,0.544,0.498,0.735c0.203,0.188,0.444,0.328,0.724,0.422s0.587,0.141,0.923,0.141c0.445,0,0.894-0.089,1.345-0.267
				s0.772-0.353,0.964-0.524h0.059v1.201c-0.371,0.156-0.75,0.287-1.137,0.393s-0.793,0.158-1.219,0.158
				c-1.086,0-1.934-0.294-2.543-0.882S65.08-2.152,65.08-3.234c0-1.07,0.292-1.92,0.876-2.549s1.353-0.943,2.306-0.943
				c0.883,0,1.563,0.258,2.042,0.773s0.718,1.248,0.718,2.197V-3.158z M69.949-4.002C69.945-4.58,69.8-5.027,69.513-5.344
				s-0.724-0.475-1.31-0.475c-0.59,0-1.06,0.174-1.409,0.521s-0.548,0.779-0.595,1.295H69.949z M76.775-5.344h-0.059
				c-0.164-0.039-0.323-0.067-0.478-0.085s-0.337-0.026-0.548-0.026c-0.34,0-0.668,0.075-0.984,0.226s-0.621,0.345-0.914,0.583V0
				h-1.102v-6.545h1.102v0.967c0.438-0.352,0.823-0.601,1.157-0.747s0.675-0.22,1.022-0.22c0.191,0,0.33,0.005,0.416,0.015
				s0.215,0.028,0.387,0.056V-5.344z"/>
		</g>
	</g>
	<g transform="matrix(1, 0, 0, 1, -715, -280)">
		<g>
			<path fill="#EDF4F6" d="M746.007,623.58v14.84c0,4.143,3.358,7.5,7.5,7.5h56.986c4.142,0,7.5-3.357,7.5-7.5v-14.84
				c0-4.143-3.358-7.5-7.5-7.5h-56.986C749.365,616.08,746.007,619.438,746.007,623.58z"/>
		</g>
	</g>
	<g transform="matrix(1, 0, 0, 1, 41, 354.42578125)">
		<g>
			<path d="M5.924-0.41C5.557-0.234,5.208-0.098,4.878,0S4.197,0.146,3.826,0.146c-0.473,0-0.906-0.069-1.301-0.208
				S1.793-0.41,1.512-0.691C1.227-0.973,1.006-1.328,0.85-1.758S0.615-2.689,0.615-3.264c0-1.07,0.294-1.91,0.882-2.52
				s1.364-0.914,2.329-0.914c0.375,0,0.743,0.053,1.104,0.158s0.692,0.234,0.993,0.387v1.225H5.865
				c-0.336-0.262-0.683-0.463-1.04-0.604S4.119-5.742,3.779-5.742c-0.625,0-1.118,0.21-1.479,0.63S1.758-4.076,1.758-3.264
				c0,0.789,0.177,1.396,0.53,1.819s0.851,0.636,1.491,0.636c0.223,0,0.449-0.029,0.68-0.088S4.896-1.031,5.08-1.125
				c0.16-0.082,0.311-0.169,0.451-0.261s0.252-0.171,0.334-0.237h0.059V-0.41z M12.914-3.27c0,1.066-0.273,1.908-0.82,2.525
				s-1.279,0.926-2.197,0.926c-0.926,0-1.661-0.309-2.206-0.926S6.873-2.203,6.873-3.27S7.146-5.179,7.69-5.798
				s1.28-0.929,2.206-0.929c0.918,0,1.65,0.31,2.197,0.929S12.914-4.336,12.914-3.27z M11.777-3.27c0-0.848-0.166-1.478-0.498-1.89
				s-0.793-0.618-1.383-0.618c-0.598,0-1.062,0.206-1.392,0.618S8.01-4.117,8.01-3.27c0,0.82,0.166,1.442,0.498,1.866
				s0.795,0.636,1.389,0.636c0.586,0,1.046-0.21,1.38-0.63S11.777-2.441,11.777-3.27z M20.092,0H18.99v-3.727
				c0-0.301-0.018-0.583-0.053-0.847s-0.1-0.47-0.193-0.618c-0.098-0.164-0.238-0.286-0.422-0.366s-0.422-0.12-0.715-0.12
				c-0.301,0-0.615,0.074-0.943,0.223s-0.643,0.338-0.943,0.568V0h-1.102v-6.545h1.102v0.727c0.344-0.285,0.699-0.508,1.066-0.668
				s0.744-0.24,1.131-0.24c0.707,0,1.246,0.213,1.617,0.639s0.557,1.039,0.557,1.84V0z M27.053-0.41
				C26.686-0.234,26.337-0.098,26.007,0s-0.681,0.146-1.052,0.146c-0.473,0-0.906-0.069-1.301-0.208s-0.732-0.349-1.014-0.63
				c-0.285-0.281-0.506-0.637-0.662-1.066s-0.234-0.932-0.234-1.506c0-1.07,0.294-1.91,0.882-2.52s1.364-0.914,2.329-0.914
				c0.375,0,0.743,0.053,1.104,0.158s0.692,0.234,0.993,0.387v1.225h-0.059c-0.336-0.262-0.683-0.463-1.04-0.604
				s-0.706-0.211-1.046-0.211c-0.625,0-1.118,0.21-1.479,0.63s-0.542,1.036-0.542,1.849c0,0.789,0.177,1.396,0.53,1.819
				s0.851,0.636,1.491,0.636c0.223,0,0.449-0.029,0.68-0.088s0.438-0.135,0.621-0.229c0.16-0.082,0.311-0.169,0.451-0.261
				s0.252-0.171,0.334-0.237h0.059V-0.41z M33.943-3.158h-4.822c0,0.402,0.061,0.753,0.182,1.052s0.287,0.544,0.498,0.735
				c0.203,0.188,0.444,0.328,0.724,0.422s0.587,0.141,0.923,0.141c0.445,0,0.894-0.089,1.345-0.267s0.772-0.353,0.964-0.524h0.059
				v1.201c-0.371,0.156-0.75,0.287-1.137,0.393s-0.793,0.158-1.219,0.158c-1.086,0-1.934-0.294-2.543-0.882
				s-0.914-1.423-0.914-2.505c0-1.07,0.292-1.92,0.876-2.549s1.353-0.943,2.306-0.943c0.883,0,1.563,0.258,2.042,0.773
				s0.718,1.248,0.718,2.197V-3.158z M32.871-4.002c-0.004-0.578-0.149-1.025-0.437-1.342s-0.724-0.475-1.31-0.475
				c-0.59,0-1.06,0.174-1.409,0.521s-0.548,0.779-0.595,1.295H32.871z M41.373-3.352c0,0.531-0.076,1.017-0.229,1.456
				S40.777-1.084,40.5-0.779c-0.258,0.289-0.562,0.513-0.911,0.671s-0.72,0.237-1.11,0.237c-0.34,0-0.647-0.037-0.923-0.111
				S37-0.172,36.715-0.328v2.742h-1.102v-8.959h1.102v0.686c0.293-0.246,0.622-0.452,0.987-0.618s0.755-0.249,1.169-0.249
				c0.789,0,1.403,0.298,1.843,0.894S41.373-4.41,41.373-3.352z M40.236-3.322c0-0.789-0.135-1.379-0.404-1.77
				s-0.684-0.586-1.242-0.586c-0.316,0-0.635,0.068-0.955,0.205s-0.627,0.316-0.92,0.539v3.709c0.312,0.141,0.581,0.236,0.806,0.287
				S38-0.861,38.285-0.861c0.613,0,1.092-0.207,1.436-0.621S40.236-2.51,40.236-3.322z M46.488-0.059
				c-0.207,0.055-0.433,0.1-0.677,0.135s-0.462,0.053-0.653,0.053c-0.668,0-1.176-0.18-1.523-0.539s-0.521-0.936-0.521-1.729v-3.48
				h-0.744v-0.926h0.744v-1.881h1.102v1.881h2.273v0.926h-2.273v2.982c0,0.344,0.008,0.612,0.023,0.806s0.07,0.374,0.164,0.542
				c0.086,0.156,0.204,0.271,0.354,0.343s0.38,0.108,0.688,0.108c0.18,0,0.367-0.026,0.562-0.079s0.336-0.097,0.422-0.132h0.059
				V-0.059z M52.494-1.887c0,0.598-0.247,1.088-0.741,1.471s-1.169,0.574-2.024,0.574c-0.484,0-0.929-0.058-1.333-0.173
				s-0.743-0.241-1.017-0.378v-1.236h0.059c0.348,0.262,0.734,0.47,1.16,0.624s0.834,0.231,1.225,0.231
				c0.484,0,0.863-0.078,1.137-0.234s0.41-0.402,0.41-0.738c0-0.258-0.074-0.453-0.223-0.586s-0.434-0.246-0.855-0.34
				c-0.156-0.035-0.36-0.076-0.612-0.123s-0.481-0.098-0.688-0.152c-0.574-0.152-0.981-0.376-1.222-0.671s-0.36-0.657-0.36-1.087
				c0-0.27,0.056-0.523,0.167-0.762s0.28-0.451,0.507-0.639c0.219-0.184,0.497-0.329,0.835-0.437s0.716-0.161,1.134-0.161
				c0.391,0,0.786,0.048,1.187,0.144s0.733,0.212,0.999,0.349v1.178h-0.059c-0.281-0.207-0.623-0.382-1.025-0.524
				s-0.797-0.214-1.184-0.214c-0.402,0-0.742,0.077-1.02,0.231s-0.416,0.384-0.416,0.688c0,0.27,0.084,0.473,0.252,0.609
				c0.164,0.137,0.43,0.248,0.797,0.334c0.203,0.047,0.431,0.094,0.683,0.141s0.462,0.09,0.63,0.129
				c0.512,0.117,0.906,0.318,1.184,0.604C52.355-2.746,52.494-2.363,52.494-1.887z"/>
		</g>
	</g>
	<g transform="matrix(1, 0, 0, 1, -715, -280)">
		<g>
			<path fill="none" stroke="#000000" stroke-width="3" stroke-linecap="square" stroke-miterlimit="10" d="M746.007,623.58v14.84
				c0,4.143,3.358,7.5,7.5,7.5h56.986c4.142,0,7.5-3.357,7.5-7.5v-14.84c0-4.143-3.358-7.5-7.5-7.5h-56.986
				C749.365,616.08,746.007,619.438,746.007,623.58z"/>
		</g>
	</g>
</g>
</svg>
